<?xml version="1.0" standalone="no"?>
<!DOCTYPE svg PUBLIC "-//W3C//DTD SVG 20010904//EN"
 "http://www.w3.org/TR/2001/REC-SVG-20010904/DTD/svg10.dtd">
<svg version="1.0" xmlns="http://www.w3.org/2000/svg"
 width="1003.000000pt" height="1003.000000pt" viewBox="0 0 1003.000000 1003.000000"
 preserveAspectRatio="xMidYMid meet">
<metadata>
Created by potrace 1.11, written by Peter Selinger 2001-2013
</metadata>
<g transform="translate(0.000000,1003.000000) scale(0.100000,-0.100000)"
fill="#000000" stroke="none">
<path d="M2528 10010 c-267 -77 -496 -281 -609 -544 -51 -119 -64 -189 -64
-351 0 -115 5 -166 19 -219 25 -93 66 -192 108 -257 19 -30 42 -83 52 -119 16
-60 118 -278 135 -290 4 -3 12 -13 17 -22 19 -35 166 -198 179 -198 3 0 17
-11 30 -24 14 -14 38 -33 55 -42 16 -10 30 -21 30 -24 0 -4 16 -12 35 -20 19
-8 35 -16 35 -20 0 -3 -47 -25 -104 -49 -277 -113 -516 -279 -766 -530 -264
-266 -429 -527 -535 -845 -176 -529 -129 -1134 133 -1701 33 -71 63 -141 67
-155 15 -48 125 -288 140 -304 6 -6 21 -31 34 -56 14 -25 28 -47 31 -50 4 -3
17 -23 28 -45 11 -22 32 -53 46 -69 14 -16 26 -32 26 -36 0 -4 8 -16 18 -28 9
-11 24 -30 32 -42 8 -12 31 -39 50 -60 19 -21 46 -53 60 -71 33 -44 214 -224
269 -269 24 -19 55 -46 71 -60 15 -14 42 -36 60 -50 18 -14 41 -32 50 -40 10
-8 28 -23 39 -33 12 -9 26 -17 31 -17 6 0 10 -3 10 -8 0 -4 18 -18 40 -32 22
-14 40 -28 40 -32 0 -5 7 -8 15 -8 8 0 15 -3 15 -8 0 -4 18 -18 40 -32 22 -14
40 -28 40 -32 0 -5 7 -8 15 -8 8 0 15 -4 15 -10 0 -5 7 -10 15 -10 8 0 15 -4
15 -10 0 -5 7 -10 15 -10 8 0 15 -3 15 -8 0 -4 18 -18 40 -32 22 -14 40 -28
40 -32 0 -5 6 -8 13 -8 7 0 23 -9 35 -20 12 -11 26 -20 32 -20 5 0 10 -4 10
-10 0 -5 7 -10 15 -10 8 0 15 -4 15 -10 0 -5 7 -10 15 -10 8 0 15 -4 15 -10 0
-5 7 -10 15 -10 8 0 15 -4 15 -10 0 -5 7 -10 15 -10 8 0 15 -4 15 -10 0 -5 7
-10 15 -10 8 0 15 -4 15 -10 0 -5 6 -10 14 -10 8 0 16 -4 18 -8 2 -5 53 -42
113 -82 61 -40 112 -77 113 -82 2 -4 10 -8 18 -8 8 0 14 -4 14 -10 0 -5 7 -10
15 -10 8 0 15 -4 15 -10 0 -5 7 -10 15 -10 8 0 15 -4 15 -10 0 -5 7 -10 15
-10 8 0 15 -4 15 -10 0 -5 7 -10 15 -10 8 0 15 -4 15 -10 0 -5 7 -10 15 -10 8
0 15 -3 15 -8 0 -4 18 -18 40 -32 22 -14 40 -28 40 -32 0 -5 7 -8 15 -8 8 0
15 -4 15 -10 0 -5 7 -10 15 -10 8 0 15 -4 15 -10 0 -5 7 -10 15 -10 8 0 15 -3
15 -8 0 -4 18 -18 40 -32 22 -14 40 -28 40 -32 0 -5 7 -8 15 -8 8 0 15 -3 15
-8 0 -4 18 -18 40 -32 22 -14 40 -28 40 -32 0 -5 4 -8 10 -8 9 0 35 -19 65
-47 8 -7 18 -13 24 -13 6 0 11 -4 11 -10 0 -5 6 -10 13 -10 7 0 19 -9 27 -20
8 -11 18 -20 23 -20 5 0 14 -6 21 -12 7 -7 28 -24 46 -38 18 -14 39 -31 46
-37 7 -7 15 -13 19 -13 3 0 16 -10 29 -22 32 -32 65 -58 72 -58 3 0 15 -10 28
-23 13 -12 35 -31 49 -42 26 -20 26 -20 12 -85 -54 -257 -100 -674 -116 -1050
-11 -257 -5 -600 11 -600 4 0 10 49 13 110 8 139 37 282 89 438 43 129 59 152
39 55 -8 -40 -11 -145 -8 -343 4 -280 10 -360 28 -360 5 0 9 -7 9 -15 0 -20
105 -125 125 -125 8 0 15 5 15 10 0 6 7 10 15 10 20 0 85 65 85 85 0 8 5 15
10 15 6 0 10 9 10 20 0 11 5 20 10 20 6 0 10 9 10 19 0 11 3 21 8 23 10 4 52
131 52 157 0 11 5 21 10 21 6 0 10 9 10 20 0 28 23 100 32 100 5 0 8 14 8 30
0 17 5 30 10 30 6 0 10 9 10 20 0 11 4 20 8 20 5 0 15 22 22 50 7 27 17 50 22
50 4 0 8 9 8 20 0 11 5 20 10 20 6 0 10 9 10 20 0 11 4 20 9 20 5 0 14 14 21
30 7 17 16 30 21 30 5 0 9 9 9 20 0 11 5 20 10 20 6 0 10 9 10 20 0 11 4 20 8
20 5 0 15 12 23 27 8 16 22 37 32 47 9 11 17 26 17 33 0 7 4 13 8 13 5 0 15
12 23 28 8 15 25 38 38 51 19 19 25 21 32 10 5 -8 9 -18 9 -23 0 -5 9 1 20 14
l20 23 18 -21 c9 -11 24 -30 32 -42 8 -12 26 -35 40 -50 14 -15 32 -38 40 -50
8 -12 23 -31 32 -42 10 -11 20 -29 23 -39 4 -11 10 -19 14 -19 5 0 22 -30 39
-67 28 -62 42 -123 71 -313 9 -60 9 -56 7 52 -2 65 1 115 5 112 5 -3 9 -12 9
-20 0 -14 12 -44 68 -168 15 -33 39 -72 55 -89 15 -16 27 -33 27 -38 0 -5 5
-9 11 -9 6 0 24 -13 39 -30 39 -42 80 -41 125 4 98 98 109 198 70 626 -28 304
-91 708 -131 843 -4 12 0 17 16 17 16 0 20 5 16 18 -2 9 -7 27 -11 40 -4 15
-2 22 7 22 8 0 42 27 76 60 35 33 66 60 71 60 5 0 26 17 47 38 22 20 55 48 74
62 19 14 48 37 64 52 16 16 33 28 38 28 6 0 23 14 38 30 15 17 32 30 38 30 5
0 23 13 40 30 18 16 36 30 40 30 5 0 23 14 40 30 18 17 36 30 42 30 6 0 24 14
42 30 17 17 36 30 42 30 6 0 18 9 26 20 8 11 19 20 25 20 5 0 26 14 45 30 19
16 40 30 45 30 6 0 17 9 25 20 8 11 19 20 25 20 5 0 26 14 45 30 19 16 40 30
45 30 6 0 17 9 25 20 8 11 21 20 30 20 9 0 22 9 30 20 8 11 21 20 30 20 9 0
22 9 30 20 8 11 19 20 25 20 5 0 26 14 45 30 19 16 41 30 48 30 6 0 12 4 12 8
0 5 12 15 28 23 15 8 36 22 46 32 11 9 26 17 33 17 7 0 13 4 13 8 0 5 12 15
28 23 15 8 34 22 43 31 9 10 23 18 30 18 8 0 21 9 29 20 8 11 21 20 29 20 7 0
21 8 30 18 9 9 28 23 44 31 15 8 27 18 27 23 0 4 6 8 13 8 6 0 28 14 47 30 19
16 40 30 45 30 6 0 17 9 25 20 8 11 21 20 30 20 9 0 22 9 30 20 8 11 19 20 25
20 5 0 26 14 45 30 19 16 38 30 43 30 4 0 21 14 39 30 17 17 35 30 40 30 4 0
22 13 40 30 17 16 35 30 40 30 6 0 23 13 38 30 15 16 33 30 38 30 5 0 33 22
61 50 28 28 55 50 60 50 13 0 301 288 301 301 0 5 18 28 40 50 22 23 40 46 40
51 0 6 13 23 30 38 16 15 30 33 30 39 0 6 14 25 30 43 17 17 30 37 30 44 0 8
5 14 10 14 6 0 10 8 10 18 0 10 9 24 20 32 11 8 20 22 20 32 0 10 5 18 10 18
6 0 10 9 10 20 0 11 4 20 8 20 11 0 112 203 112 224 0 9 4 16 8 16 5 0 15 23
22 50 7 28 17 50 22 50 4 0 8 14 8 30 0 17 5 30 10 30 6 0 10 14 10 30 0 17 5
30 10 30 6 0 10 14 10 30 0 17 5 30 10 30 6 0 10 18 10 40 0 22 5 40 10 40 6
0 10 18 10 40 0 22 4 40 9 40 5 0 12 19 15 42 3 24 10 72 16 108 44 270 44
509 0 780 -6 36 -13 84 -16 108 -3 23 -10 42 -15 42 -5 0 -9 18 -9 40 0 22 -4
40 -10 40 -5 0 -10 14 -10 30 0 17 -4 30 -10 30 -5 0 -10 14 -10 30 0 17 -4
30 -10 30 -5 0 -10 14 -10 30 0 17 -4 30 -8 30 -5 0 -15 23 -22 50 -7 28 -17
50 -22 50 -4 0 -8 9 -8 20 0 11 -4 20 -10 20 -5 0 -10 9 -10 20 0 11 -4 20
-10 20 -5 0 -10 9 -10 20 0 11 -4 20 -10 20 -5 0 -10 9 -10 20 0 11 -4 20 -10
20 -5 0 -10 9 -10 20 0 11 -4 20 -9 20 -5 0 -14 14 -21 30 -7 17 -16 30 -21
30 -5 0 -9 8 -9 18 0 10 -9 24 -20 32 -11 8 -20 20 -20 28 0 7 -11 24 -25 38
-14 14 -25 29 -25 33 0 5 -14 23 -30 41 -16 18 -30 36 -30 40 0 5 -21 31 -47
58 -27 27 -55 60 -63 72 -19 28 -167 180 -176 180 -3 0 -19 14 -34 30 -15 17
-31 30 -35 30 -4 0 -24 18 -45 40 -21 22 -43 40 -49 40 -6 0 -11 5 -11 10 0 6
-6 10 -13 10 -7 0 -19 9 -27 20 -8 11 -20 20 -27 20 -7 0 -13 5 -13 10 0 6 -6
10 -13 10 -7 0 -19 9 -27 20 -8 11 -21 20 -30 20 -9 0 -22 9 -30 20 -8 11 -20
20 -28 20 -7 0 -22 9 -34 20 -12 11 -28 20 -35 20 -7 0 -13 5 -13 10 0 6 -9
10 -20 10 -11 0 -20 5 -20 10 0 6 -9 10 -20 10 -11 0 -20 5 -20 10 0 6 -9 10
-20 10 -11 0 -20 5 -20 10 0 6 -9 10 -20 10 -11 0 -20 5 -20 10 0 6 -9 10 -20
10 -11 0 -20 5 -20 10 0 6 -9 10 -20 10 -11 0 -20 4 -20 8 0 4 -21 14 -47 21
-53 16 -93 47 -93 71 0 11 30 32 88 61 48 24 89 47 90 51 2 5 9 8 15 8 7 0 28
14 47 30 19 16 39 30 43 30 11 0 197 190 197 201 0 5 14 23 30 41 17 17 30 37
30 44 0 8 5 14 10 14 6 0 10 9 10 20 0 11 5 20 10 20 6 0 10 9 10 20 0 11 5
20 10 20 6 0 10 9 10 20 0 11 5 20 10 20 6 0 10 9 10 20 0 11 5 20 10 20 6 0
10 14 10 30 0 17 4 30 9 30 5 0 11 15 14 33 3 17 11 52 18 77 8 29 12 108 12
220 -1 182 -9 270 -24 270 -5 0 -9 9 -9 20 0 28 -23 100 -32 100 -5 0 -8 7 -8
15 0 19 -59 139 -71 143 -5 2 -9 11 -9 21 0 9 -9 23 -20 31 -11 8 -20 20 -20
27 0 8 -19 33 -42 58 -24 24 -54 57 -68 74 -14 17 -29 31 -33 31 -5 0 -26 18
-47 40 -21 22 -43 40 -49 40 -6 0 -11 5 -11 10 0 6 -5 10 -10 10 -6 0 -20 9
-32 20 -12 11 -28 20 -35 20 -7 0 -13 5 -13 10 0 6 -9 10 -20 10 -11 0 -20 5
-20 10 0 6 -9 10 -20 10 -11 0 -20 5 -20 10 0 6 -9 10 -20 10 -11 0 -20 5 -20
10 0 6 -13 10 -30 10 -16 0 -30 5 -30 10 0 6 -13 10 -30 10 -16 0 -30 5 -30
10 0 6 -12 10 -26 10 -14 0 -46 14 -70 31 -61 42 -157 84 -246 109 -59 16
-103 20 -239 20 -148 0 -176 -3 -253 -25 -267 -77 -486 -267 -593 -515 -118
-275 -99 -602 51 -849 20 -32 36 -66 36 -75 0 -9 5 -16 10 -16 6 0 10 -13 10
-30 0 -16 5 -30 10 -30 6 0 10 -13 10 -30 0 -16 5 -30 10 -30 6 0 10 -7 10
-15 0 -19 59 -139 71 -143 5 -2 9 -10 9 -18 0 -8 11 -26 25 -40 14 -14 25 -29
25 -34 0 -6 43 -53 96 -106 53 -52 94 -97 92 -98 -1 -2 -45 -11 -96 -20 -209
-37 -494 -155 -674 -278 -116 -78 -267 -223 -341 -327 -81 -111 -150 -247
-196 -384 l-39 -118 -28 58 c-15 32 -31 60 -35 63 -3 3 -16 25 -29 49 -12 25
-27 50 -34 57 -6 6 -18 22 -26 34 -8 12 -23 32 -32 43 -10 12 -28 35 -40 50
-33 40 -136 147 -142 147 -5 0 -35 25 -89 75 -12 11 -34 26 -49 34 -16 8 -28
18 -28 23 0 4 -7 8 -15 8 -8 0 -15 5 -15 10 0 6 -7 10 -15 10 -8 0 -15 5 -15
10 0 6 -9 10 -20 10 -11 0 -20 5 -20 10 0 6 -7 10 -15 10 -8 0 -15 5 -15 10 0
6 -7 10 -15 10 -8 0 -15 5 -15 10 0 6 -9 10 -20 10 -11 0 -20 5 -20 10 0 6 -9
10 -20 10 -11 0 -20 5 -20 10 0 6 -11 10 -25 10 -14 0 -25 5 -25 10 0 6 -7 10
-15 10 -8 0 -23 4 -33 9 -9 5 -30 14 -47 21 -16 7 -38 16 -47 21 -10 5 -22 9
-28 9 -6 0 -57 22 -113 50 -56 27 -137 62 -179 78 -61 22 -75 31 -66 40 7 7
18 12 25 12 7 0 13 5 13 10 0 6 7 10 15 10 8 0 15 5 15 10 0 6 7 10 15 10 8 0
15 5 15 10 0 6 6 10 13 10 7 0 19 9 27 20 8 11 18 20 23 20 10 0 136 128 157
160 14 20 34 47 59 76 21 25 114 221 132 278 47 145 60 338 33 491 -24 136
-92 328 -135 379 -5 6 -24 33 -42 61 -55 86 -220 255 -247 255 -6 0 -10 5 -10
10 0 6 -7 10 -15 10 -8 0 -15 5 -15 10 0 6 -7 10 -15 10 -8 0 -15 5 -15 10 0
6 -7 10 -15 10 -8 0 -15 5 -15 10 0 6 -9 10 -20 10 -11 0 -20 5 -20 10 0 6 -9
10 -20 10 -11 0 -20 5 -20 10 0 6 -11 10 -25 10 -14 0 -25 5 -25 10 0 6 -11
10 -25 10 -14 0 -25 5 -25 10 0 6 -13 10 -29 10 -17 0 -33 5 -36 10 -3 6 -15
10 -27 10 -11 0 -32 9 -47 19 -53 38 -169 91 -255 116 -80 23 -104 25 -260 24
-136 0 -184 -4 -238 -19z m3846 -3350 c17 -5 52 -15 79 -22 26 -7 47 -16 47
-20 0 -4 9 -8 20 -8 11 0 20 -4 20 -10 0 -5 9 -10 20 -10 11 0 20 -4 20 -10 0
-5 8 -10 18 -10 10 0 24 -9 32 -20 8 -11 20 -20 28 -20 14 0 192 -175 192
-190 0 -5 7 -16 15 -24 51 -50 66 -378 26 -563 -12 -57 -33 -135 -47 -175 -38
-105 -143 -307 -220 -423 -164 -248 -297 -389 -1209 -1281 -242 -237 -464
-460 -494 -496 l-54 -65 -198 198 c-109 110 -201 199 -203 199 -12 0 -837 819
-904 897 -17 21 -44 52 -60 69 -15 18 -34 42 -42 54 -8 12 -27 36 -42 52 -16
17 -28 33 -28 38 0 6 -9 18 -49 66 -5 6 -17 26 -26 45 -10 19 -21 36 -25 39
-26 19 -137 248 -171 353 -73 230 -73 485 0 714 19 60 87 204 101 213 4 3 13
16 20 29 7 14 18 31 24 38 27 33 146 153 151 153 4 0 12 6 20 13 34 32 73 57
140 90 22 11 48 23 57 28 10 5 27 9 37 9 11 0 23 5 26 10 4 6 62 10 140 10 78
0 136 -4 140 -10 3 -5 17 -10 31 -10 13 0 24 -3 24 -8 0 -4 12 -13 28 -19 15
-7 40 -24 56 -38 28 -24 30 -29 29 -103 -1 -202 -135 -313 -428 -355 -78 -11
-90 -15 -93 -33 -2 -17 15 -26 129 -68 73 -26 145 -50 161 -53 27 -5 40 -23
17 -23 -17 0 -35 -22 -64 -80 -21 -42 -26 -61 -21 -93 7 -42 30 -92 52 -115 8
-7 14 -18 14 -23 0 -5 7 -9 15 -9 8 0 15 -4 15 -10 0 -5 7 -10 15 -10 8 0 15
-4 15 -10 0 -5 11 -10 25 -10 14 0 25 -4 25 -10 0 -5 11 -10 24 -10 14 0 28
-4 31 -10 3 -5 19 -10 35 -10 16 0 32 -4 35 -10 3 -5 19 -10 35 -10 16 0 32
-4 35 -10 4 -6 62 -10 140 -10 78 0 136 4 140 10 3 6 19 10 36 10 16 0 29 5
29 10 0 6 8 10 18 10 22 0 72 22 72 33 0 4 7 7 15 7 8 0 15 5 15 10 0 6 7 10
15 10 8 0 15 5 15 10 0 6 5 10 11 10 11 0 116 105 139 140 8 12 20 28 27 35
35 37 142 283 144 334 0 11 3 9 11 -6 6 -13 15 -23 20 -23 4 0 8 10 8 23 1 22
1 22 14 -3 7 -14 19 -46 27 -72 7 -27 17 -48 21 -48 4 0 8 -9 8 -20 0 -11 5
-20 10 -20 6 0 10 -9 10 -20 0 -11 5 -20 10 -20 6 0 10 -9 10 -20 0 -11 4 -20
9 -20 5 0 14 -13 21 -30 7 -16 16 -30 21 -30 4 0 11 -9 14 -20 8 -26 140 -160
157 -160 8 0 20 -9 28 -20 8 -11 22 -20 32 -20 10 0 18 -4 18 -10 0 -5 9 -10
20 -10 11 0 20 -4 20 -10 0 -5 14 -10 30 -10 17 0 30 -4 30 -9 0 -18 227 -38
243 -22 6 6 30 11 53 11 24 0 46 5 49 10 3 6 22 10 41 10 19 0 34 5 34 10 0 6
14 10 30 10 17 0 30 5 30 10 0 6 14 10 30 10 17 0 30 5 30 10 0 6 7 10 15 10
20 0 105 85 105 104 0 8 5 16 11 18 16 5 17 130 1 136 -6 2 -12 12 -12 23 0
10 -3 19 -8 19 -4 0 -12 10 -17 23 -6 12 -20 26 -32 32 -13 5 -23 13 -23 17 0
5 -13 8 -30 8 -16 0 -30 5 -30 10 0 6 -10 10 -21 10 -28 0 -151 42 -166 56 -7
6 -10 14 -7 17 11 10 -7 47 -22 47 -36 0 -46 27 -41 108 7 97 17 152 28 152 5
0 9 14 9 30 0 17 5 30 10 30 6 0 10 9 10 20 0 11 4 20 8 20 5 0 15 12 23 28
18 34 98 112 116 112 7 0 13 5 13 10 0 6 9 10 19 10 11 0 23 5 26 10 3 6 22
10 41 10 19 0 34 5 34 10 0 13 153 13 194 0z"/>
</g>
</svg>
